<svg xmlns="http://www.w3.org/2000/svg" version="1.1" xmlns:xlink="http://www.w3.org/1999/xlink" viewBox="0 0 700 700" width="100%" height="100%">
  <defs>
    <pattern id="dragon-pattern" patternUnits="userSpaceOnUse" width="700" height="700">
      <path d="M350,15C279.2,15,211.4,40.2,159.6,86.7C107.8,133.2,75.7,198.2,75.7,265C75.7,331.8,107.8,396.8,159.6,443.3C211.4,489.9,279.2,515,350,515C420.8,515,488.6,489.9,540.4,443.3C592.2,396.8,624.3,331.8,624.3,265C624.3,198.2,592.2,133.2,540.4,86.7C488.6,40.2,420.8,15,350,15Z" stroke="#991b1b" stroke-width="10" fill="none" opacity="0.05"></path>
      <path d="M350,75C294.3,75,240.8,94.3,200.3,128.9C159.8,163.5,135.7,212.7,135.7,265C135.7,317.3,159.8,366.5,200.3,401.1C240.8,435.7,294.3,455,350,455C405.7,455,459.2,435.7,499.7,401.1C540.2,366.5,564.3,317.3,564.3,265C564.3,212.7,540.2,163.5,499.7,128.9C459.2,94.3,405.7,75,350,75Z" stroke="#991b1b" stroke-width="8" fill="none" opacity="0.05"></path>
    </pattern>
  </defs>
  <rect width="100%" height="100%" fill="url(#dragon-pattern)"></rect>
</svg>