<svg width="192" height="192" xmlns="http://www.w3.org/2000/svg" viewBox="0 0 192 192" fill="none">
  <g stroke="currentColor" stroke-width="2" stroke-linecap="round" stroke-linejoin="round">
    <!-- Đầu rồng -->
    <path d="M56 32c4-4 10-4 14 0 4 4 4 10 0 14-4 4-10 4-14 0-4-4-4-10 0-14z"/>
    <path d="M68 38c2-2 5-2 7 0 2 2 2 5 0 7-2 2-5 2-7 0-2-2-2-5 0-7z"/>
    <path d="M60 46c0 0-6 6-6 12s6 12 6 12"/>
    <path d="M50 38c0 0-6 0-10 4s-4 10-4 10"/>
    <path d="M42 48c0 0-6 6-6 12s6 12 6 12"/>
    
    <!-- Thân rồng -->
    <path d="M70 70c0 0 10-10 20-10s20 10 20 10"/>
    <path d="M110 70c0 0 10 10 10 20s-10 20-10 20"/>
    <path d="M110 110c0 0-10 10-20 10s-20-10-20-10"/>
    <path d="M70 110c0 0-10-10-10-20s10-20 10-20"/>
    
    <!-- Đuôi rồng -->
    <path d="M130 90c0 0 20 0 30 10"/>
    <path d="M160 100c0 0 10 10 10 20"/>
    <path d="M170 120c0 0 0 10-10 10"/>
    <path d="M160 130c0 0-10 0-10-10"/>
    
    <!-- Vảy rồng -->
    <path d="M90 85c0 0 5-5 10 0s0 10 0 10"/>
    <path d="M90 95c0 0-5 5 0 10s10 0 10 0"/>
    
    <!-- Chân rồng -->
    <path d="M80 110c0 0 0 20-10 30"/>
    <path d="M70 140c0 0-10 10-20 10"/>
    <path d="M100 110c0 0 0 20 10 30"/>
    <path d="M110 140c0 0 10 10 20 10"/>
  </g>
</svg>